<?xml version="1.0" encoding="UTF-8"?>
<svg width="512px" height="512px" viewBox="0 0 512 512" version="1.1" xmlns="http://www.w3.org/2000/svg">
  <circle cx="256" cy="256" r="240" fill="#4f46e5" />
  <path d="M256,100 C320,100 370,150 370,214 C370,278 320,328 256,328 C192,328 142,278 142,214 C142,150 192,100 256,100 Z M256,140 C214,140 182,172 182,214 C182,256 214,288 256,288 C298,288 330,256 330,214 C330,172 298,140 256,140 Z" fill="white" />
  <path d="M256,356 C298,356 330,388 330,430 L182,430 C182,388 214,356 256,356 Z" fill="white" />
</svg>
