<?xml version="1.0" encoding="UTF-8"?>
<svg width="192px" height="192px" viewBox="0 0 192 192" version="1.1" xmlns="http://www.w3.org/2000/svg">
  <circle cx="96" cy="96" r="88" fill="#4f46e5" />
  <path d="M96,40 C120,40 140,60 140,84 C140,108 120,128 96,128 C72,128 52,108 52,84 C52,60 72,40 96,40 Z M96,56 C80,56 68,68 68,84 C68,100 80,112 96,112 C112,112 124,100 124,84 C124,68 112,56 96,56 Z" fill="white" />
  <path d="M96,136 C112,136 124,148 124,164 L68,164 C68,148 80,136 96,136 Z" fill="white" />
</svg>
